<svg id="name" xmlns="http://www.w3.org/2000/svg" viewBox="0 0 362.28 213.16"><title>pacific-logo</title><text transform="translate(0 88.16)" style="font-size:100px;fill:#333;font-family:Avenir">Pacifi<tspan x="0" y="100">Imagery</tspan></text><path d="M341.81,95a24.42,24.42,0,0,1-2.56-10.23c-0.26-4.25.41-7.76,2.08-7.11,0.67,0.25,1.58-.17,3.12,1s2.64,3.15,3.13,5.89a26.46,26.46,0,0,0,4.93,10.59c0.83,1.06,5.87-4.35,8.18-4.67a26.36,26.36,0,0,1,8,.36c-0.82,5-4.79,13-11.93,14.89-1.67.49-3.42,0.16-6.24-.49a2.47,2.47,0,0,0,1.56,1.6c1.76,0.72,4.56.91,6.43,2.14,5.3,3.37,10.16,8.36,7.37,11.62-1.36,1.58-10.85-1.62-12.33-2.47-2.65-1.68-4-4.41-7.33-9.56,0.68,3.7,1.16,19.89-5.72,20.07-1.76.05-2.73-12.19-2.68-14.2a14.26,14.26,0,0,1,3.59-9.49c-0.84-.36-0.9-0.28-2.82.12-1.7.35-3.5,1.64-5.57,1.3a9.57,9.57,0,0,1-7-7c-0.26-1.25,10.56-5.08,12.18-4.65,2.11,0.57,3.93,3.8,6.93,6.11C344.4,99.38,342.43,96.17,341.81,95Zm9.36,1.84c-0.66-.25-2.46-4.87-4.73-8.48a11.9,11.9,0,0,0-2.38-3c-0.83-.67-1,1-1,2.81,0,2.61-1.19,3.55-1.31,6-0.13,2.72,1.93,4.9,1.65,5S340.82,98,339,96.8c-1.51-1-2.35-1.74-2.31-1.52,0.84,2.21,2.16,3.4,2.09,4.56-0.12,2.41-6,5.77-5.18,5.82,3.26,0.18,5-2.33,7.66-2,1.34,0.19,1.89.61,1.67,1-1.34,4-3.35,5.37-3.89,7.63a7.7,7.7,0,0,0,3.43,8.13c2.22,1.47,3.07-2.24,3.19-6.18,0.06-2.7-1.48-6.84-.73-6.92,1.84,0,2.8,5.8,7,8.47,1.92,1.14,4.79,1.63,7.24,2.36l1.24,0.44c-0.44-3.29-.5-5.81-1.78-7.93-1.44-2.55-3.54-3.42-6-4.3-0.43-.22-2.62-1.15-2.47-1.18,1.36-.51,2.11.57,3.44,0.29,5.29-1.16,8.93-8.51,9.88-11.78A4.13,4.13,0,0,0,360,92.12c-2.67.09-5.08,1.81-7.26,3.56C351.85,96.39,351.51,97,351.17,96.84Z" transform="translate(-40.98 -36.91)" style="fill:#4d4d4d;fill-rule:evenodd"/><path d="M343.72,105.81c-3.72,8.83-1.65,10.32-1.65,10.32,0.82-1.63.82-11.38,5.63-10,0.75,0.31,1.66,1.35,2.63,3.46,1.36,2.87,3.07,6.74,3.13,6.66s-0.33-1.62-1.6-5.2c-1.13-2.92-2.12-5.86-1.68-6.34a47,47,0,0,1,5.6-3.76c-2.71.25-5.51,1.59-6.52,0.41-2.2-2.47-1.23-7.12-2.26-9.91,0-.07.94,8.72-0.5,9.17-2.53.75-7.53-1.91-7.43-1.78C341.1,101.28,345.57,101.36,343.72,105.81Z" transform="translate(-40.98 -36.91)" style="fill:#4d4d4d;fill-rule:evenodd"/><path d="M344.66,104.39c-2,4.79-1.89,6.53-1.83,6.06,0.11-.95,2.41-5.87,4.95-5.09,0.49,0.13.9,0.66,1.45,1.85a34,34,0,0,0,2.07,3.72c0.06-.09-0.59-1-1.22-3-0.63-1.56-.77-3-0.52-3.27a22.44,22.44,0,0,1,2.62-2.23c-1.5.15-2.65,0.54-3.25-.1-1.13-1.38-.95-3.49-1.48-5,0-.07.51,4.73-0.29,5-1.39.36-4.24-1.59-4.15-1.53C344.11,102.12,345.71,102,344.66,104.39Z" transform="translate(-40.98 -36.91)" style="fill:#4d4d4d;fill-rule:evenodd"/><path d="M362.47,105.89c8-.26,14.4-1,20.11-3,8.5-3.12,13.78-7.74,16.94-13.3,3.44-6.08,4.48-11.13,3.23-16.1a24.62,24.62,0,0,0-2.78-6.8,31.57,31.57,0,0,0-8-9.27,51.76,51.76,0,0,0-6.82-4.44c-4.59-2.52-9.52-3.35-15.19-.27-3,1.7-5,4.17-7.07,6.75,3.22-2.66,7.72-6.57,11.95-7.29,5.06-.81,10.62,1.59,15.37,5.3a24.18,24.18,0,0,1,9.26,20.45,26.34,26.34,0,0,1-8.9,18.8C382.8,103.49,372.21,104.28,362.47,105.89Z" transform="translate(-40.98 -36.91)" style="fill:#4d4d4d;fill-rule:evenodd"/><path d="M358.66,106.75a125.78,125.78,0,0,1,14.52,0c7.75,0.33,15.64,2.1,21,5.38,8,4.89,8.68,12.74,7.19,19.73-1.4,6.66-3.79,10.76-7.28,13.93a22.15,22.15,0,0,1-6.91,4.87,26,26,0,0,1-15.49,1.25c-4.83-1.08-8.53-3.78-12.1-6.58a30.14,30.14,0,0,1-4.45-4.47c-4.33-5.41-5.2-10-6.69-16.53,1.35,5.1,2.7,9,4.77,12.39,4.86,8,11.93,11.38,19.89,12.74,5.64,0.92,10.16,1.61,14.78-.57,5.2-2.37,8.1-7.34,10.17-12.61,1.93-4.85,4.25-11.85,1.62-16.84-2.86-5.33-10.94-8-19.11-9.68-5.78-1.2-11.59-1.85-15.49-2.51A49.17,49.17,0,0,0,358.66,106.75Z" transform="translate(-40.98 -36.91)" style="fill:#4d4d4d;fill-rule:evenodd"/><path d="M325.82,111.78a82.46,82.46,0,0,0-13.68,16.09A30.26,30.26,0,0,0,308.45,150a19.36,19.36,0,0,0,7.76,11.62c6,4.22,14.26,6.6,21,5.83,1.8-.22,3.83-0.4,6.34-0.91,5.17-1,8-3.87,10.18-9.92,1.18-3.24,1.26-7.33,1.12-10.67-0.44,3.47-1.33,10-3.91,13.55-1.8,2.44-5,2.32-7.11,3.53-8.14,4.51-21.59,2.2-28.95-5.59-4.51-4.76-5.58-13.37-4.65-20.09C311.59,127.06,319.55,119.44,325.82,111.78Z" transform="translate(-40.98 -36.91)" style="fill:#4d4d4d;fill-rule:evenodd"/><path d="M322.39,86.09A44.26,44.26,0,0,0,309.22,81c-8.63-1.61-15.14-.81-21.27,2.67a31.82,31.82,0,0,0-8.64,8.07,21.77,21.77,0,0,0-3.14,7.94,22.75,22.75,0,0,0,1.74,15.23c2.7,6.05,5.33,9.51,10.14,10.9,2,0.6,6,.39,8.12.26a46.66,46.66,0,0,0,12.65-2.36c-3.39.31-6.56,0.58-9.35,0.84-11.11.89-18.63-7.32-19.06-18.83-0.62-13.16,8.16-25.79,25.08-23.42A98.55,98.55,0,0,1,322.39,86.09Z" transform="translate(-40.98 -36.91)" style="fill:#333;fill-rule:evenodd"/><path d="M351.07,88.48c0.18-1.73.31-3.37,0.58-5,0.47-3.32,1.09-6.67,1.67-9.86A97.74,97.74,0,0,0,354.53,63c0.21-4.58-.05-8.51-1.37-11.93-2.72-6.89-8.26-12.21-15.63-13.69a29.56,29.56,0,0,0-10.8.14C318.36,39,313,45.9,311.8,54.21a25,25,0,0,0,1.8,13.3C318.06,78,328.09,86.13,336.81,93.1c-8.55-8.39-21.75-18.43-23.74-30.77A26.43,26.43,0,0,1,314,49.23a17.15,17.15,0,0,1,8.62-9.29,21.22,21.22,0,0,1,27.9,8.34C357.81,60.61,350.88,75.16,351.07,88.48Z" transform="translate(-40.98 -36.91)" style="fill:#4d4d4d;fill-rule:evenodd"/></svg>